PathFileType	4	(X/Y/Z)	/Users/niels/Desktop/University/Third Semester/Perception and Action/Exam/Gymnastics Motion Tracking/Code for Gym Tracking/Analyzed Data/Webcam_Backflip/id6_2_pure_Sports2D/id6_2_pure_Sports2D_px_person00.trc
DataRate	CameraRate	NumFrames	NumMarkers	Units	OrigDataRate	OrigDataStartFrame	OrigNumFrames
29.81132075471698	29.81132075471698	9	22	m	29.81132075471698	99	159
Frame#	Time	Hip			RHip			RKnee			RAnkle			RBigToe			RSmallToe			RHeel			LHip			LKnee			LAnkle			LBigToe			LSmallToe			LHeel			Neck			Head			Nose			RShoulder			RElbow			RWrist			LShoulder			LElbow			LWrist		
		X1	Y1	Z1	X2	Y2	Z2	X3	Y3	Z3	X4	Y4	Z4	X5	Y5	Z5	X6	Y6	Z6	X7	Y7	Z7	X8	Y8	Z8	X9	Y9	Z9	X10	Y10	Z10	X11	Y11	Z11	X12	Y12	Z12	X13	Y13	Z13	X14	Y14	Z14	X15	Y15	Z15	X16	Y16	Z16	X17	Y17	Z17	X18	Y18	Z18	X19	Y19	Z19	X20	Y20	Z20	X21	Y21	Z21	X22	Y22	Z22
99	3.320886075949367	0.9123852225144119	-0.5324488889247584	0.0	0.9104651274339983	-0.5335514535656523	0.0	0.9444132271702773	-0.6312321054897795	0.0	0.9139779967014924	-0.7275804050820565	0.0	0.9355755931693716	-0.7538057413663667	0.0	0.9305727281666456	-0.7552063302029396	0.0	0.9056213626661778	-0.7392603862126556	0.0	0.9104867685188323	-0.5314243026555385	0.0	0.9208782005170898	-0.6311216897891541	0.0	0.8814648231488732	-0.7155890416285913	0.0	0.9101437498480591	-0.744470537825513	0.0	0.9018099440443829	-0.7398505987222872	0.0	0.8703075766539791	-0.7257108467457687	0.0	0.9321186856255671	-0.40393352537450355	0.0	0.9630238485948341	-0.3462248399990355	0.0	0.9665717493861418	-0.38051303436721	0.0	0.9252685785595538	-0.4166441283373065	0.0	0.910157458535314	-0.47018240844600967	0.0	0.9576670044909639	-0.513826108379812	0.0	0.9249676905959907	-0.41527985579177545	0.0	0.917667289594006	-0.4741179021844735	0.0	0.9575996059389204	-0.5167237109682916	0.0
100	3.354430379746835	0.9170461370471797	-0.5063474241018067	0.0	0.9160610587123792	-0.5080760689308987	0.0	0.9468493401722643	-0.6066878669941551	0.0	0.9174866367907052	-0.7039341809203263	0.0	0.9373239051721935	-0.7350226981473057	0.0	0.9326181393663793	-0.7361662378957451	0.0	0.9092280127344708	-0.716765904967263	0.0	0.9136867846882871	-0.5056974786824909	0.0	0.9258830079108821	-0.606362391353202	0.0	0.8867028986555863	-0.6913601415914225	0.0	0.9151568200541167	-0.7248278892250939	0.0	0.9059724281369954	-0.72062440080107	0.0	0.8758073866155602	-0.7020936598880271	0.0	0.9362028136913089	-0.37948627152512804	0.0	0.9698486522690865	-0.32086282505879354	0.0	0.970480512478278	-0.35578931557883275	0.0	0.9297111888621515	-0.3911411920994385	0.0	0.9137925599969844	-0.4424199119987417	0.0	0.9638367693103361	-0.48350476355396654	0.0	0.9293086985969992	-0.39015858781846047	0.0	0.9208944677840398	-0.4496005681470941	0.0	0.9647307893188433	-0.4900485376329524	0.0
101	3.3879746835443036	0.9212263656862636	-0.48382644755245763	0.0	0.9210328708361989	-0.48608106467062867	0.0	0.949001529336073	-0.5853167263846353	0.0	0.9211217694001347	-0.6833565450098608	0.0	0.9387759941734106	-0.7184053062576141	0.0	0.9343094040948939	-0.7191676280276758	0.0	0.9129570613549972	-0.696762576606508	0.0	0.9167281039353217	-0.4835399726122157	0.0	0.9312275701686036	-0.5848273718819933	0.0	0.8936342249971868	-0.6709934419044762	0.0	0.9214385723605734	-0.7085331874726665	0.0	0.9119118697636426	-0.7046782211385277	0.0	0.8832458783077046	-0.6821957382614902	0.0	0.9404602219167103	-0.35873146225672375	0.0	0.9769855337186563	-0.2993487660727683	0.0	0.9748964313064754	-0.3348763533142548	0.0	0.9341017661067357	-0.36889305397002514	0.0	0.9188289639096999	-0.4183677862983185	0.0	0.9713643534601629	-0.45556408184628266	0.0	0.9336518220223855	-0.36891138943089224	0.0	0.9247893949540203	-0.42934649267720204	0.0	0.9715215794541443	-0.46773135945266053	0.0
102	3.421518987341772	0.9247377619567673	-0.46539400703296524	0.0	0.9249999808369226	-0.46784501018252267	0.0	0.9511106777567021	-0.5673006510765741	0.0	0.9248717203372633	-0.666082566473614	0.0	0.9410418348673961	-0.7042246736029628	0.0	0.9364322120645755	-0.7044968622551249	0.0	0.9165898678931399	-0.6796846464267283	0.0	0.9197657053709777	-0.46527905436854766	0.0	0.9367057140559051	-0.5668242035031374	0.0	0.902187835310526	-0.6550434029906967	0.0	0.9291388916302166	-0.695469722692004	0.0	0.9200219722230396	-0.6919363966750873	0.0	0.892461362048082	-0.666722486184307	0.0	0.9448737269856947	-0.3420792724578409	0.0	0.9842424494669879	-0.2821706227004696	0.0	0.9798611754072212	-0.31822969916355454	0.0	0.9383190447475356	-0.3504344109010189	0.0	0.9254503269996763	-0.3988821025999726	0.0	0.9803751383490958	-0.4309008857294199	0.0	0.9379758744156116	-0.35200118276923864	0.0	0.9297862622216513	-0.41358891031459616	0.0	0.9778327772899323	-0.4506824044565996	0.0
103	3.4550632911392403	0.9275616454696962	-0.4510807996516591	0.0	0.9278885730640363	-0.45325987509642096	0.0	0.9534086193753321	-0.5525838736284399	0.0	0.9289676710164239	-0.6520658342848484	0.0	0.9449461487604779	-0.6925959434606987	0.0	0.9396689935310562	-0.6923506111900339	0.0	0.9203401066597655	-0.665711984672765	0.0	0.9229215854113492	-0.4508832581639024	0.0	0.9422136702740902	-0.5523995259542057	0.0	0.9120163854759444	-0.6434770398506502	0.0	0.9380582211584083	-0.685456397253163	0.0	0.9301378711935884	-0.6822290287155168	0.0	0.9029510396561542	-0.6555925798986475	0.0	0.9493916561632212	-0.32950864777694755	0.0	0.9913510067985587	-0.26924048451318167	0.0	0.9852209320325735	-0.3057700939912728	0.0	0.9424290777263458	-0.3359629606543368	0.0	0.933511857619639	-0.38430706823798677	0.0	0.9906401992178513	-0.4104997860252055	0.0	0.9422777074184389	-0.33934236460770595	0.0	0.9356507200382335	-0.4017953003585594	0.0	0.983508396796621	-0.4389302868610062	0.0
104	3.488607594936709	0.9298255097510519	-0.4406904507127052	0.0	0.9298991095393713	-0.44217642308645017	0.0	0.9560086644988914	-0.5411630631360446	0.0	0.9338585864179891	-0.6412462773057348	0.0	0.9507550199888571	-0.6835431330727388	0.0	0.9444596735792985	-0.6828336976227197	0.0	0.9249069578245978	-0.6550380330320921	0.0	0.9261326247467131	-0.4402152409544633	0.0	0.9476752948740318	-0.5415089012762245	0.0	0.9226045965085153	-0.6358247109581036	0.0	0.9475896237406636	-0.6783847768029474	0.0	0.9414375403459939	-0.6754462106405197	0.0	0.914048749185207	-0.6481623339773234	0.0	0.9539743771422007	-0.32072193565294554	0.0	0.9979847826752316	-0.2601783336692025	0.0	0.990724079550348	-0.29716943015007635	0.0	0.9466568217881384	-0.32550350458308824	0.0	0.9426127364051199	-0.374701754249859	0.0	1.0016560926306128	-0.3956322347855046	0.0	0.946486260451375	-0.33051916819539623	0.0	0.941866327395612	-0.3933052547202104	0.0	0.9884338498404553	-0.4318875953215883	0.0
105	3.522151898734177	0.9317404379572086	-0.43401824172122105	0.0	0.9314418032820585	-0.43463655733114576	0.0	0.9589157705480761	-0.5331664864121903	0.0	0.9399750036707933	-0.6337222556107993	0.0	0.9583824256917772	-0.6770710337895481	0.0	0.9510709251980074	-0.6760544420089994	0.0	0.9310664736595419	-0.6480074086292906	0.0	0.9290904214137884	-0.43318135765913657	0.0	0.9529565450687842	-0.534096059593501	0.0	0.9334441892385212	-0.6314636876744358	0.0	0.9571831517069819	-0.6741818305096561	0.0	0.952924920836973	-0.6714748414188395	0.0	0.9252219821734001	-0.6437384234594923	0.0	0.9586401663386516	-0.3153163555760323	0.0	1.0039066887780452	-0.25457882741609505	0.0	0.9961704384402383	-0.2920608213992164	0.0	0.9512564767098473	-0.31905086550484	0.0	0.9521874088285632	-0.3699315742462176	0.0	1.0127149894887728	-0.3874302215117029	0.0	0.9504662477561344	-0.3250540878462066	0.0	0.9480286637064977	-0.3878612458003117	0.0	0.9926139146659906	-0.428953039117173	0.0
106	3.5556962025316454	0.9335244854385619	-0.4309211278633249	0.0	0.9330087878252071	-0.4308094707783801	0.0	0.9620969796841927	-0.528775486114915	0.0	0.9474228331858691	-0.6296754764569682	0.0	0.96754216057878	-0.6732662007498977	0.0	0.9595164329458363	-0.6722195884848037	0.0	0.9390727147886332	-0.6449228440297855	0.0	0.9314653461823668	-0.4297466996895002	0.0	0.9578615604053997	-0.5301728648157318	0.0	0.944146832087289	-0.6299383057522651	0.0	0.9667740289988558	-0.6727529584837529	0.0	0.9640363266090254	-0.6701547918536053	0.0	0.9361854226605041	-0.6420450877001426	0.0	0.9634501082084854	-0.3129716760906868	0.0	1.0090949784863337	-0.25216452253320937	0.0	1.0014784909219627	-0.29012881405353447	0.0	0.9563294501282354	-0.31656531903835927	0.0	0.9615835603414723	-0.3696634693106021	0.0	1.022911260978683	-0.38640887412473424	0.0	0.9542044253533285	-0.3226305191134914	0.0	0.9539477838749703	-0.38563347626674865	0.0	0.996133458385833	-0.42977318406798465	0.0
107	3.589240506329114	0.9353760621022464	-0.4313136755985754	0.0	0.9350168061441678	-0.4308321525514657	0.0	0.9655113428386369	-0.5281843554860256	0.0	0.9558986292607249	-0.629241359363968	0.0	0.9777637204043361	-0.6723916932280898	0.0	0.9694266202290591	-0.6716315773085009	0.0	0.9484402475144481	-0.6457897269420414	0.0	0.9332130932991767	-0.42992301784033937	0.0	0.9622256321845883	-0.5298476451988141	0.0	0.9544120524761902	-0.6311090013137819	0.0	0.9766194044417005	-0.6739720983034604	0.0	0.9746856916649125	-0.6713268210821508	0.0	0.9467200376760833	-0.6432621987950253	0.0	0.9684698000924306	-0.3135686682924269	0.0	1.0137046142074435	-0.25282580795641724	0.0	1.0066402803332888	-0.29116913035473674	0.0	0.961760292683444	-0.3179230371718271	0.0	0.9701712583035426	-0.37346402347958246	0.0	1.031276089700361	-0.392426521446456	0.0	0.9579446677328376	-0.3231773866150203	0.0	0.9595996445355631	-0.38691416186885247	0.0	0.999070145221804	-0.434112155750318	0.0
